<svg width="1920" height="432" fill="none" xmlns="http://www.w3.org/2000/svg"><g clip-path="url(#clip0_625_5658)"><path opacity=".8" d="M563.812 405.382v157.747h135.256M563.812 405.382H339.518V382.79m224.294 22.592l68.648-74.247m215.842 139.334v92.66h93.764V723.41m-93.764-252.941l57.074-60.993h25.462m-82.536 60.993H800.34v-105.35l-35.343-33.984H632.46m518.59 78.341H930.838m220.212 0l55.06-35.522v-72.046h-28.55v-89.47m-26.51 197.038v69.149M344.276 87.81h248.553V-80.407M344.276 87.81V43.63l128.29-166.521m-128.29 210.7v82.922l37.382 34.663v40.781m679.992-900.823l215.05 173.236m-309.494 206.98l-2.384 74.115V92.457m2.384-366.889l-152.877-119.91L685.234-283.47 440.632-478.7m526.574 204.268l63.184-62.064-49.595-36.153 110.075-117.5-107.358-84.961M1991.82-42.009h-178.76V78.974h-43.5M1401.68-217.79L1223.36-38.83V92.458m178.32-310.248l90.06-90.384-215.04-173.237m124.98 263.621l97.54 75.923h179.37m105.32-316.345v316.345h-105.32M964.822 92.457v57.314h-49.616v68.693m49.616-126.007h168.558M164.841-18v69.107l10.195 14.953v33.619H87.357L49.975 61.982H-9.157M1.027-34.612h146.89L268.731-151.51l203.835 28.618m0 0v-168.413l-185.94-147.627m52.892 726.087l42.14-40.981m-42.14 40.981H172.997l-36.023-34.184v-47.578l-35.917-32.624H-79.164l70.007 44.179L-24.79 489.5l8.831 26.026m355.477-228.37v95.634m575.688-164.326h15.632v191.012m-15.632-191.012h-65.249V69.458h-47.578V-2.588M1276.7-481.412l156.61-157.57v-106.05m197.72 203.665v-189.204m239.17 180.166V-643.2h48.92v-82.551M983.512-575.11L815.688-704.661M983.512-575.11l195.248-197.038m307.38 1129.803v59.119h283.42l23.11-22.429V341.67m-306.53 15.985h-44.68l-155.59-74.115v-71.102h-108.31m308.58 145.217v-63.223l30.58-29.226h53.02l10.19-6.797h175.36l37.38 30.586v52.675m199.15-121.236h-106V108.2l50.96-27.718h42.13m-755.55 11.975h54.35l90.62 49.048h69.55V68.099m-214.52 24.358h-89.98m545.21-234.325v34.346h300.32M-1.011-667.302l287.637 228.371m901.404-908.059l-197.723 212.1 308.473 241.627-120.02 121.115M-30.907-1085.48l254.794 198.845 80.855-85.563m8.153-371.782l-80.855 87.37 102.597 80.14 44.844 125.34-31.255 33.14m-61.6 579.059l92.176-87.974 61.83 48.205m0 0l106.334-105.629m268.722-120.332l-167.824 20.487-100.898 99.845m268.722-120.332l163.748-168.115 142.004 109.667 30.58-30.731 26.74 21.692M546.966-584.329L362.495-730.571 472.566-838.43c-53.224-47.435-167.824-133.768-167.824-133.768m0 0l43.484-45.792m0 0l48.921 37.253L590.79-1161.4l-43.824-174.75M1133.38 92.457v119.981h44.18m106.71 256.672v-57.773h90.4l11.73 11.732v46.041M653.53-38.83v244.224h-60.701v40.781m-211.171 0h211.171m-595.19 29.906h89.038v24.468l80.882 82.241-55.733 55.734h-43.5L-2.36 368.517m133.896 110.788l91.757-96.515h116.225m253.311-136.615v46.218l39.631 38.742m805.42-263.036V-5.306h281.48v84.28h50.2M1437.88 68.1h131.86l82.24 82.241h117.58V78.974m23.11 262.696h78.84l51.66 52.675h62.53M568.368-926.404l116.186 90.987 67.266-71.705 25.14-8.435 51.638-53.026-97.841-76.527h-49.6L568.368-926.404z" stroke="url(#paint0_radial_625_5658)" strokeWidth="1.359"/><path d="M438.07 405.22h-68.647l4.078 4.078h59.812l4.757-4.078zm47.578-165.841h-61.851l-6.117 6.796h76.804l-8.836-6.796zm133.217 91.756l-26.508-25.828v25.828h26.508zm-459.463-44.179l-22.429-21.07v21.07h22.429zM1281.55 216.27h-21.75l4.08 5.437h12.23v12.234l5.44 2.719v-20.39zm105.35 201.864l-6.79-6.797h6.79v6.797zm186.91-161.084h-47.57l-5.55 4.758h46.33l6.79-4.758zM1851 18.332h5.333v14.667H1851zm32 0h5.333v14.667H1883zm-21.34 0h5.333v14.667h-5.333zm32.01 0h5.333v14.667h-5.333zm-21.34 0h5.333v14.667h-5.333zm32 0h5.333v14.667h-5.333zM1705 394h5.333v14.667H1705zm32 0h5.333v14.667H1737zm-21.34 0h5.333v14.667h-5.333zm32.01 0h5.333v14.667h-5.333zm-21.33 0h5.333v14.667h-5.333zm31.99 0h5.333v14.667h-5.333z" fill="#FF8E08"/><path fill="#FF8700" d="M300 17h5.333v14.667H300zm10.664 0h5.333v14.667h-5.333zm10.668 0h5.333v14.667h-5.333z"/></g><defs><radialGradient id="paint0_radial_625_5658" cx="0" cy="0" r="1" gradientUnits="userSpaceOnUse" gradientTransform="matrix(11.55479 324.88659 -317.16647 11.28021 989.291 74.216)"><stop stop-color="#FF8700" stop-opacity="0"/><stop offset="1" stop-color="#FF8700"/></radialGradient><clipPath id="clip0_625_5658"><path fill="#fff" d="M0 0h1920v432H0z"/></clipPath></defs></svg>