<svg width="1920" height="1282" fill="none" xmlns="http://www.w3.org/2000/svg"><g clip-path="url(#clip0_660_4936)"><path d="M1146.33 685.333v79.334h-19.16m19.16-79.334h62m-62 0h-74l-173.998-174V281.332l-47.143-47.144h-64.062m1145.203-5.502h-313.35v53.312h-50.65m-102.77 0v-53.312h-57.23v-92.203L1201-86m264.56 367.998h102.77m-102.77 0v40.669M1492.33-15.5v72.833l74 52M787.127 234.188h-73.994v88.479m73.994-88.479V156M1043 326.176h66.15l134.49 134.491h33.9M1043 326.176v158.825h140.67l70.66 84.332h67.34v86.999h173.66l93-92.999H1627l218.67-204h86.66M1043 326.176V217.332L994 144h-18.5v-36M-57.668 543.333H57l20 23.018v94.316H-27.668l-14.666-10h-10.667M470.332 1172h14.667m507.333 137.33v-282.29m-945.695 81.48l-24.5-23.52v-87.526h74.79l11.282-5.165h124.11v49.711l4.513 8.72v63.59h-86.716l-8.704-5.81H46.637zm0 0L154.193 1227H263.5l48 72.5m896.83-614.167v126l21.34 20v114.188m-21.34-260.188h93.03L1383.67 750v26H1319v149.333h59.67l129-129.002h136.66m-618-31.664h100.84M1823 764v-24.667l60-58.666h68M1823 764v38.667l-42 40.666h-36.33M1823 764h-33.33L1741 811.333h-21.33l-11.34 32h36.34M1289 1074v46l152.67 3.33v68l23.33-22.66v-94l76-76.003-43.33-43.325 80.66-80.009h66M1289 1074l-59.33-46.96v-81.519M1289 1074l-125.33-99.333h-90V962L1025 916V764.667h-69.332v46.997L919.832 847.5h-121V644.667L738.629 590.5V485.001l-65.298-65.298M1937.5 1229.83L1833.67 1126v-22L1715 990v-32.667l26-24.666h26.67l13.33 12.666h64s20.31-19.909 33.33-32.666H1943M1881.67 1314l-158-155.33V1126l-50-48h-93.93L1449 1206.67v40.66l42.67-40.66h24l20-15.34H1585l41.33 42.67v74.77L1585 1264h-49.33l-50.96 49.38M-53.001 788H71.665l46.667-49.333h51.334L332.999 899.5v35.999m0 73.171L470.332 1146v143.5m14.667-117.5h63.333l53.333 60h80v120.67h48l18.667-18V1304l54.667-56.67V1163m-318 9l37.333-43.33h94l19.333-26h90.67l47 47v128.41m-105.67-581.413l50 44V916m-50-219.333v-52h-97.074L543.924 618v-51.649l84.605-95.876m39.136 226.192H543.924L297.573 450.315M-59.001 253.333l65.333-68.666v-65.334l44-42.666h264M-46.334 447.333h153.333l62.667-62.666h54.763l83.815-85.607 150.088-.393.667-36.667h54.913v-64.305h-1.466l-88.781-93.616V76.667m204.864 393.808l-53.53-55.808H437.665l-27.333 24.666H308.244l-10.671 10.982m330.956 20.16l44.802-50.772M213.666 536.667h-65.767m65.767 0h129.166l72.833 72.833V766M213.666 536.667l83.907-86.352m-149.674 86.352V500l160.345-162.667h83.993l28.095 28h154.667l41.333-42.666h96.801m-565.234 214v152h150.433L392.237 766h23.428m297.468-443.333v51.931l-39.802 45.105m894.999-137.705l34.67 34.669v137.834L1519 546h-53.44V322.667M863.355-40l86.31 85.333v37.499l26 25.168h118.665m34.41 0l85.59 88h56.49m-142.08-88h-34.41m34.41 0v181.2l148.8 148.8v22.667M1270.82 196l129.51 126.667h65.23M1270.82 196v66.667l115.51 114.165v83.835h-108.79M314.332-2.5v79.167m0 0h109.333m293.306 872H598.332L415.665 766m1329.005 77.333v32m0 0H1817L1878.33 814H1943m-198.33 61.333h-100.34M1094.33-22v130M694.5-28.5l92.627 127.167V156m0 0l-32.128-21.611H617.665L608.332 126h-22.667m0-136.5V126m0 0h-32l-25.333 12.667-59.333-62h-45.334m294 872V916m0 0h218l56.667 55.333v55.707m651.998-151.707v-79.002m0 0V656.332l35.34-40.999H1715l39.33-38v-32L1789.67 510m-662.5 254.667v82.165l102.5 98.689M332.999 1056v241.5m0-241.5l-16.831 16.83V1289m16.831-233V935.499m0 0l137.333 137.331h62.667l112-103.33h64v75.17l94 94V1163M1932.33 425.665H1874c-33.65 33.646-56.65 56.65-84.33 84.335m0 0l59.33 59.333h102M802.999 1163H876.5l115.832-135.96M1929.07 93.5l-46.74 46.734H1815m-248.67-30.901l74 52h96l16.75-21.099H1815m-248.67-30.901l65.17-65.168h142l59.67-59.665M1815 140.234v-30.901L1927.33-3M248.929 180.909v94.262l-24.5 16.787h-94.775l-8.704 5.81H34.234v-63.594l4.514-8.716v-49.714h124.11l11.282 5.165h74.789zM1199.67 1182l126 131.38V1280l-149.34-156.67V1104H1137v78h62.67z" stroke="#FF9008"/></g><defs><clipPath id="clip0_660_4936"><path fill="#fff" transform="matrix(-1 0 0 1 1920 0)" d="M0 0h1920v1282H0z"/></clipPath></defs></svg>